<!DOCTYPE svg PUBLIC "-//W3C//DTD SVG 1.1//EN" "http://www.w3.org/Graphics/SVG/1.1/DTD/svg11.dtd">
<!-- Uploaded to: SVG Repo, www.svgrepo.com, Transformed by: SVG Repo Mixer Tools -->
<svg height="800px" width="800px" version="1.1" id="Layer_1" xmlns="http://www.w3.org/2000/svg" xmlns:xlink="http://www.w3.org/1999/xlink" viewBox="0 0 512 512" xml:space="preserve" fill="#000000">
<g id="SVGRepo_bgCarrier" stroke-width="0"/>
<g id="SVGRepo_tracerCarrier" stroke-linecap="round" stroke-linejoin="round"/>
<g id="SVGRepo_iconCarrier"> <path style="fill:#f7dfcf;" d="M512,256.006C512,397.402,397.394,512.004,256.004,512C114.606,512.004,0,397.402,0,256.006 C-0.007,114.61,114.606,0,256.004,0C397.394,0,512,114.614,512,256.006z"/> <path style="fill:#ebd3c2;" d="M511.299,274.021c-0.195-0.195-0.388-0.394-0.587-0.586 c-0.545-0.544-133.277-133.293-133.829-133.828C346.081,108.94,303.291,89.856,256,89.856c-93.559,0-169.678,74.532-169.678,166.144 c0,46.124,19.323,87.888,50.423,118.021c0.548,0.547,136.544,136.562,137.097,137.097c0.061,0.06,0.122,0.122,0.181,0.182 C401.037,502.461,502.461,401.039,511.299,274.021z"/> <g> <path style="fill:#F4F6F9;" d="M256,89.857c-93.559,0-169.678,74.531-169.678,166.143S162.441,422.143,256,422.143 S425.678,347.612,425.678,256S349.559,89.857,256,89.857z M256,408.003c-85.764,0-155.538-68.187-155.538-152.003 S170.236,103.997,256,103.997S411.538,172.182,411.538,256S341.764,408.003,256,408.003z"/> <path style="fill:#F4F6F9;" d="M261.489,184.375c-2.692-3.3-8.285-3.3-10.978,0l-91.909,113.119 c-2.458,3.031-2.002,7.484,1.028,9.949c3.038,2.465,7.484,2.002,9.949-1.028L256,200.048l86.42,106.367 c1.402,1.719,3.438,2.61,5.495,2.61c1.567,0,3.141-0.517,4.453-1.581c3.031-2.465,3.487-6.918,1.028-9.949L261.489,184.375z"/> </g> </g>
</svg>